<mxfile host="app.diagrams.net" modified="2021-09-15T16:12:03.190Z" agent="5.0 (Windows NT 10.0; Win64; x64) AppleWebKit/537.36 (KHTML, like Gecko) Chrome/92.0.4515.107 Safari/537.36" etag="ZzT0tEoJRSoy0Wf38vGF" version="15.2.7" type="github">
  <diagram id="hIDNaDbmLkUkVA62g8P6" name="Page-1">
    <mxGraphModel dx="1182" dy="732" grid="1" gridSize="10" guides="1" tooltips="1" connect="1" arrows="1" fold="1" page="1" pageScale="1" pageWidth="850" pageHeight="1100" math="0" shadow="0">
      <root>
        <mxCell id="0" />
        <mxCell id="1" parent="0" />
        <mxCell id="FHiyNW-LSYfmvbNTAPMm-9" style="edgeStyle=orthogonalEdgeStyle;rounded=0;orthogonalLoop=1;jettySize=auto;html=1;exitX=1;exitY=0.5;exitDx=0;exitDy=0;entryX=0;entryY=0.112;entryDx=0;entryDy=0;entryPerimeter=0;strokeWidth=1;" edge="1" parent="1" source="FHiyNW-LSYfmvbNTAPMm-1" target="FHiyNW-LSYfmvbNTAPMm-3">
          <mxGeometry relative="1" as="geometry" />
        </mxCell>
        <mxCell id="FHiyNW-LSYfmvbNTAPMm-1" value="Time-Switch" style="rounded=0;whiteSpace=wrap;html=1;" vertex="1" parent="1">
          <mxGeometry x="200" y="210" width="120" height="40" as="geometry" />
        </mxCell>
        <mxCell id="FHiyNW-LSYfmvbNTAPMm-10" style="edgeStyle=orthogonalEdgeStyle;rounded=0;orthogonalLoop=1;jettySize=auto;html=1;exitX=1;exitY=0.5;exitDx=0;exitDy=0;entryX=0;entryY=0.5;entryDx=0;entryDy=0;strokeWidth=1;" edge="1" parent="1" source="FHiyNW-LSYfmvbNTAPMm-2" target="FHiyNW-LSYfmvbNTAPMm-3">
          <mxGeometry relative="1" as="geometry" />
        </mxCell>
        <mxCell id="FHiyNW-LSYfmvbNTAPMm-18" style="edgeStyle=orthogonalEdgeStyle;rounded=0;orthogonalLoop=1;jettySize=auto;html=1;exitX=0;exitY=0.5;exitDx=0;exitDy=0;startArrow=classic;startFill=1;endArrow=none;endFill=0;strokeWidth=2;" edge="1" parent="1" source="FHiyNW-LSYfmvbNTAPMm-2">
          <mxGeometry relative="1" as="geometry">
            <mxPoint x="150" y="300" as="targetPoint" />
          </mxGeometry>
        </mxCell>
        <mxCell id="FHiyNW-LSYfmvbNTAPMm-2" value="Time-Switch" style="rounded=0;whiteSpace=wrap;html=1;" vertex="1" parent="1">
          <mxGeometry x="200" y="280" width="120" height="40" as="geometry" />
        </mxCell>
        <mxCell id="FHiyNW-LSYfmvbNTAPMm-3" value="&lt;b&gt;Space-Switch (Crossbar)&lt;/b&gt;" style="rounded=0;whiteSpace=wrap;html=1;" vertex="1" parent="1">
          <mxGeometry x="360" y="210" width="100" height="180" as="geometry" />
        </mxCell>
        <mxCell id="FHiyNW-LSYfmvbNTAPMm-12" style="edgeStyle=orthogonalEdgeStyle;rounded=0;orthogonalLoop=1;jettySize=auto;html=1;exitX=1;exitY=0.5;exitDx=0;exitDy=0;entryX=0;entryY=0.889;entryDx=0;entryDy=0;entryPerimeter=0;strokeWidth=1;" edge="1" parent="1" source="FHiyNW-LSYfmvbNTAPMm-4" target="FHiyNW-LSYfmvbNTAPMm-3">
          <mxGeometry relative="1" as="geometry" />
        </mxCell>
        <mxCell id="FHiyNW-LSYfmvbNTAPMm-19" style="edgeStyle=orthogonalEdgeStyle;rounded=0;orthogonalLoop=1;jettySize=auto;html=1;exitX=0;exitY=0.5;exitDx=0;exitDy=0;startArrow=classic;startFill=1;endArrow=none;endFill=0;strokeWidth=2;" edge="1" parent="1" source="FHiyNW-LSYfmvbNTAPMm-4">
          <mxGeometry relative="1" as="geometry">
            <mxPoint x="150" y="370" as="targetPoint" />
          </mxGeometry>
        </mxCell>
        <mxCell id="FHiyNW-LSYfmvbNTAPMm-4" value="Time-Switch" style="rounded=0;whiteSpace=wrap;html=1;" vertex="1" parent="1">
          <mxGeometry x="200" y="350" width="120" height="40" as="geometry" />
        </mxCell>
        <mxCell id="FHiyNW-LSYfmvbNTAPMm-13" style="edgeStyle=orthogonalEdgeStyle;rounded=0;orthogonalLoop=1;jettySize=auto;html=1;exitX=0;exitY=0.5;exitDx=0;exitDy=0;entryX=1;entryY=0.111;entryDx=0;entryDy=0;entryPerimeter=0;strokeWidth=1;startArrow=classic;startFill=1;endArrow=none;endFill=0;" edge="1" parent="1" source="FHiyNW-LSYfmvbNTAPMm-5" target="FHiyNW-LSYfmvbNTAPMm-3">
          <mxGeometry relative="1" as="geometry" />
        </mxCell>
        <mxCell id="FHiyNW-LSYfmvbNTAPMm-20" style="edgeStyle=orthogonalEdgeStyle;rounded=0;orthogonalLoop=1;jettySize=auto;html=1;exitX=1;exitY=0.5;exitDx=0;exitDy=0;startArrow=none;startFill=0;endArrow=classic;endFill=1;strokeWidth=2;" edge="1" parent="1" source="FHiyNW-LSYfmvbNTAPMm-5">
          <mxGeometry relative="1" as="geometry">
            <mxPoint x="670" y="230" as="targetPoint" />
          </mxGeometry>
        </mxCell>
        <mxCell id="FHiyNW-LSYfmvbNTAPMm-5" value="Time-Switch" style="rounded=0;whiteSpace=wrap;html=1;" vertex="1" parent="1">
          <mxGeometry x="500" y="210" width="120" height="40" as="geometry" />
        </mxCell>
        <mxCell id="FHiyNW-LSYfmvbNTAPMm-14" style="edgeStyle=orthogonalEdgeStyle;rounded=0;orthogonalLoop=1;jettySize=auto;html=1;exitX=0;exitY=0.5;exitDx=0;exitDy=0;entryX=1;entryY=0.5;entryDx=0;entryDy=0;startArrow=classic;startFill=1;endArrow=none;endFill=0;strokeWidth=1;" edge="1" parent="1" source="FHiyNW-LSYfmvbNTAPMm-6" target="FHiyNW-LSYfmvbNTAPMm-3">
          <mxGeometry relative="1" as="geometry" />
        </mxCell>
        <mxCell id="FHiyNW-LSYfmvbNTAPMm-21" style="edgeStyle=orthogonalEdgeStyle;rounded=0;orthogonalLoop=1;jettySize=auto;html=1;exitX=1;exitY=0.5;exitDx=0;exitDy=0;startArrow=none;startFill=0;endArrow=classic;endFill=1;strokeWidth=2;" edge="1" parent="1" source="FHiyNW-LSYfmvbNTAPMm-6">
          <mxGeometry relative="1" as="geometry">
            <mxPoint x="670" y="300" as="targetPoint" />
          </mxGeometry>
        </mxCell>
        <mxCell id="FHiyNW-LSYfmvbNTAPMm-6" value="Time-Switch" style="rounded=0;whiteSpace=wrap;html=1;" vertex="1" parent="1">
          <mxGeometry x="500" y="280" width="120" height="40" as="geometry" />
        </mxCell>
        <mxCell id="FHiyNW-LSYfmvbNTAPMm-17" style="edgeStyle=orthogonalEdgeStyle;rounded=0;orthogonalLoop=1;jettySize=auto;html=1;exitX=0;exitY=0.5;exitDx=0;exitDy=0;entryX=0.997;entryY=0.889;entryDx=0;entryDy=0;entryPerimeter=0;startArrow=classic;startFill=1;endArrow=none;endFill=0;strokeWidth=1;" edge="1" parent="1" source="FHiyNW-LSYfmvbNTAPMm-7" target="FHiyNW-LSYfmvbNTAPMm-3">
          <mxGeometry relative="1" as="geometry" />
        </mxCell>
        <mxCell id="FHiyNW-LSYfmvbNTAPMm-22" style="edgeStyle=orthogonalEdgeStyle;rounded=0;orthogonalLoop=1;jettySize=auto;html=1;exitX=1;exitY=0.5;exitDx=0;exitDy=0;startArrow=none;startFill=0;endArrow=classic;endFill=1;strokeWidth=2;" edge="1" parent="1" source="FHiyNW-LSYfmvbNTAPMm-7">
          <mxGeometry relative="1" as="geometry">
            <mxPoint x="670" y="370" as="targetPoint" />
          </mxGeometry>
        </mxCell>
        <mxCell id="FHiyNW-LSYfmvbNTAPMm-7" value="Time-Switch" style="rounded=0;whiteSpace=wrap;html=1;" vertex="1" parent="1">
          <mxGeometry x="500" y="350" width="120" height="40" as="geometry" />
        </mxCell>
        <mxCell id="FHiyNW-LSYfmvbNTAPMm-8" value="" style="endArrow=classic;html=1;entryX=0;entryY=0.5;entryDx=0;entryDy=0;strokeWidth=2;" edge="1" parent="1" target="FHiyNW-LSYfmvbNTAPMm-1">
          <mxGeometry width="50" height="50" relative="1" as="geometry">
            <mxPoint x="150" y="230" as="sourcePoint" />
            <mxPoint x="400" y="300" as="targetPoint" />
          </mxGeometry>
        </mxCell>
        <mxCell id="FHiyNW-LSYfmvbNTAPMm-23" value="&lt;font style=&quot;font-size: 14px&quot;&gt;Input Data&lt;/font&gt;" style="text;html=1;strokeColor=none;fillColor=none;align=center;verticalAlign=middle;whiteSpace=wrap;rounded=0;rotation=-90;fontStyle=1" vertex="1" parent="1">
          <mxGeometry x="90" y="290" width="80" height="20" as="geometry" />
        </mxCell>
        <mxCell id="FHiyNW-LSYfmvbNTAPMm-24" value="&lt;font style=&quot;font-size: 14px&quot;&gt;Output Data&lt;/font&gt;" style="text;html=1;strokeColor=none;fillColor=none;align=center;verticalAlign=middle;whiteSpace=wrap;rounded=0;rotation=-90;fontStyle=1" vertex="1" parent="1">
          <mxGeometry x="640" y="290" width="100" height="20" as="geometry" />
        </mxCell>
      </root>
    </mxGraphModel>
  </diagram>
</mxfile>
